<mxfile host="app.diagrams.net" modified="2023-08-25T07:14:57.273Z" agent="Mozilla/5.0 (Windows NT 10.0; Win64; x64) AppleWebKit/537.36 (KHTML, like Gecko) Chrome/116.0.0.0 Safari/537.36" etag="706LOfZ2pPPkm6FJZiLm" version="21.6.6" type="github">
  <diagram id="C5RBs43oDa-KdzZeNtuy" name="Page-1">
    <mxGraphModel dx="1621" dy="464" grid="1" gridSize="10" guides="1" tooltips="1" connect="1" arrows="1" fold="1" page="1" pageScale="1" pageWidth="827" pageHeight="1169" math="0" shadow="0">
      <root>
        <mxCell id="WIyWlLk6GJQsqaUBKTNV-0" />
        <mxCell id="WIyWlLk6GJQsqaUBKTNV-1" parent="WIyWlLk6GJQsqaUBKTNV-0" />
        <mxCell id="-wIp1APwmRtR18hznMCX-2" value="" style="edgeStyle=orthogonalEdgeStyle;rounded=0;orthogonalLoop=1;jettySize=auto;html=1;entryX=0;entryY=0.5;entryDx=0;entryDy=0;" edge="1" parent="WIyWlLk6GJQsqaUBKTNV-1" source="-wIp1APwmRtR18hznMCX-0" target="-wIp1APwmRtR18hznMCX-1">
          <mxGeometry relative="1" as="geometry" />
        </mxCell>
        <mxCell id="-wIp1APwmRtR18hznMCX-0" value="Bắt đầu" style="ellipse;whiteSpace=wrap;html=1;" vertex="1" parent="WIyWlLk6GJQsqaUBKTNV-1">
          <mxGeometry x="-20" y="485" width="100" height="55" as="geometry" />
        </mxCell>
        <mxCell id="-wIp1APwmRtR18hznMCX-1" value="Gửi tờ trình" style="whiteSpace=wrap;html=1;" vertex="1" parent="WIyWlLk6GJQsqaUBKTNV-1">
          <mxGeometry x="180" y="487.5" width="200" height="50" as="geometry" />
        </mxCell>
        <mxCell id="-wIp1APwmRtR18hznMCX-68" style="edgeStyle=orthogonalEdgeStyle;rounded=0;orthogonalLoop=1;jettySize=auto;html=1;" edge="1" parent="WIyWlLk6GJQsqaUBKTNV-1" source="-wIp1APwmRtR18hznMCX-19">
          <mxGeometry relative="1" as="geometry">
            <mxPoint x="780" y="520" as="targetPoint" />
          </mxGeometry>
        </mxCell>
        <mxCell id="-wIp1APwmRtR18hznMCX-69" value="Đồng ý" style="edgeLabel;html=1;align=center;verticalAlign=middle;resizable=0;points=[];" vertex="1" connectable="0" parent="-wIp1APwmRtR18hznMCX-68">
          <mxGeometry x="-0.2986" relative="1" as="geometry">
            <mxPoint as="offset" />
          </mxGeometry>
        </mxCell>
        <mxCell id="-wIp1APwmRtR18hznMCX-19" value="&#xa;&lt;span style=&quot;color: rgb(0, 0, 0); font-family: Helvetica; font-size: 12px; font-style: normal; font-variant-ligatures: normal; font-variant-caps: normal; font-weight: 400; letter-spacing: normal; orphans: 2; text-align: center; text-indent: 0px; text-transform: none; widows: 2; word-spacing: 0px; -webkit-text-stroke-width: 0px; background-color: rgb(251, 251, 251); text-decoration-thickness: initial; text-decoration-style: initial; text-decoration-color: initial; float: none; display: inline !important;&quot;&gt;Người Duyệt 1&lt;/span&gt;&#xa;&#xa;" style="whiteSpace=wrap;html=1;" vertex="1" parent="WIyWlLk6GJQsqaUBKTNV-1">
          <mxGeometry x="510" y="420" width="120" height="60" as="geometry" />
        </mxCell>
        <mxCell id="-wIp1APwmRtR18hznMCX-67" style="edgeStyle=orthogonalEdgeStyle;rounded=0;orthogonalLoop=1;jettySize=auto;html=1;" edge="1" parent="WIyWlLk6GJQsqaUBKTNV-1" source="-wIp1APwmRtR18hznMCX-28">
          <mxGeometry relative="1" as="geometry">
            <mxPoint x="780" y="520" as="targetPoint" />
          </mxGeometry>
        </mxCell>
        <mxCell id="-wIp1APwmRtR18hznMCX-79" value="Chờ duyệt" style="edgeLabel;html=1;align=center;verticalAlign=middle;resizable=0;points=[];" vertex="1" connectable="0" parent="-wIp1APwmRtR18hznMCX-67">
          <mxGeometry x="-0.4467" relative="1" as="geometry">
            <mxPoint as="offset" />
          </mxGeometry>
        </mxCell>
        <mxCell id="-wIp1APwmRtR18hznMCX-72" value="" style="edgeStyle=orthogonalEdgeStyle;rounded=0;orthogonalLoop=1;jettySize=auto;html=1;" edge="1" parent="WIyWlLk6GJQsqaUBKTNV-1" source="-wIp1APwmRtR18hznMCX-28" target="-wIp1APwmRtR18hznMCX-71">
          <mxGeometry relative="1" as="geometry" />
        </mxCell>
        <mxCell id="-wIp1APwmRtR18hznMCX-73" value="Từ chối" style="edgeLabel;html=1;align=center;verticalAlign=middle;resizable=0;points=[];" vertex="1" connectable="0" parent="-wIp1APwmRtR18hznMCX-72">
          <mxGeometry relative="1" as="geometry">
            <mxPoint as="offset" />
          </mxGeometry>
        </mxCell>
        <mxCell id="-wIp1APwmRtR18hznMCX-28" value="Người duyệt 3" style="whiteSpace=wrap;html=1;" vertex="1" parent="WIyWlLk6GJQsqaUBKTNV-1">
          <mxGeometry x="510" y="560" width="120" height="60" as="geometry" />
        </mxCell>
        <mxCell id="-wIp1APwmRtR18hznMCX-37" value="" style="edgeStyle=orthogonalEdgeStyle;rounded=0;orthogonalLoop=1;jettySize=auto;html=1;" edge="1" parent="WIyWlLk6GJQsqaUBKTNV-1" source="-wIp1APwmRtR18hznMCX-32" target="-wIp1APwmRtR18hznMCX-36">
          <mxGeometry relative="1" as="geometry" />
        </mxCell>
        <mxCell id="-wIp1APwmRtR18hznMCX-32" value="Duyệt" style="rhombus;whiteSpace=wrap;html=1;" vertex="1" parent="WIyWlLk6GJQsqaUBKTNV-1">
          <mxGeometry x="780" y="480" width="80" height="80" as="geometry" />
        </mxCell>
        <mxCell id="-wIp1APwmRtR18hznMCX-41" value="" style="edgeStyle=orthogonalEdgeStyle;rounded=0;orthogonalLoop=1;jettySize=auto;html=1;" edge="1" parent="WIyWlLk6GJQsqaUBKTNV-1" source="-wIp1APwmRtR18hznMCX-36" target="-wIp1APwmRtR18hznMCX-40">
          <mxGeometry relative="1" as="geometry" />
        </mxCell>
        <mxCell id="-wIp1APwmRtR18hznMCX-36" value="Đã phê duyệt" style="whiteSpace=wrap;html=1;" vertex="1" parent="WIyWlLk6GJQsqaUBKTNV-1">
          <mxGeometry x="970" y="490" width="120" height="60" as="geometry" />
        </mxCell>
        <mxCell id="-wIp1APwmRtR18hznMCX-40" value="Kết thúc" style="ellipse;whiteSpace=wrap;html=1;" vertex="1" parent="WIyWlLk6GJQsqaUBKTNV-1">
          <mxGeometry x="1220" y="500" width="120" height="40" as="geometry" />
        </mxCell>
        <mxCell id="-wIp1APwmRtR18hznMCX-56" style="edgeStyle=orthogonalEdgeStyle;rounded=0;orthogonalLoop=1;jettySize=auto;html=1;exitX=1;exitY=0.5;exitDx=0;exitDy=0;entryX=0;entryY=0.5;entryDx=0;entryDy=0;" edge="1" parent="WIyWlLk6GJQsqaUBKTNV-1" source="-wIp1APwmRtR18hznMCX-23" target="-wIp1APwmRtR18hznMCX-32">
          <mxGeometry relative="1" as="geometry">
            <Array as="points">
              <mxPoint x="710" y="520" />
              <mxPoint x="710" y="520" />
            </Array>
          </mxGeometry>
        </mxCell>
        <mxCell id="-wIp1APwmRtR18hznMCX-78" value="Chờ duyệt" style="edgeLabel;html=1;align=center;verticalAlign=middle;resizable=0;points=[];" vertex="1" connectable="0" parent="-wIp1APwmRtR18hznMCX-56">
          <mxGeometry x="-0.1333" relative="1" as="geometry">
            <mxPoint as="offset" />
          </mxGeometry>
        </mxCell>
        <mxCell id="-wIp1APwmRtR18hznMCX-23" value="Người duyệt 2" style="whiteSpace=wrap;html=1;" vertex="1" parent="WIyWlLk6GJQsqaUBKTNV-1">
          <mxGeometry x="510" y="490" width="120" height="60" as="geometry" />
        </mxCell>
        <mxCell id="-wIp1APwmRtR18hznMCX-49" value="" style="endArrow=classic;html=1;rounded=0;entryX=0.003;entryY=0.4;entryDx=0;entryDy=0;entryPerimeter=0;" edge="1" parent="WIyWlLk6GJQsqaUBKTNV-1" target="-wIp1APwmRtR18hznMCX-23">
          <mxGeometry relative="1" as="geometry">
            <mxPoint x="380" y="512" as="sourcePoint" />
            <mxPoint x="480" y="512" as="targetPoint" />
          </mxGeometry>
        </mxCell>
        <mxCell id="-wIp1APwmRtR18hznMCX-50" value="" style="shape=message;html=1;outlineConnect=0;" vertex="1" parent="-wIp1APwmRtR18hznMCX-49">
          <mxGeometry width="20" height="14" relative="1" as="geometry">
            <mxPoint x="-10" y="-7" as="offset" />
          </mxGeometry>
        </mxCell>
        <mxCell id="-wIp1APwmRtR18hznMCX-53" style="edgeStyle=orthogonalEdgeStyle;rounded=0;orthogonalLoop=1;jettySize=auto;html=1;exitX=0.5;exitY=0;exitDx=0;exitDy=0;entryX=0;entryY=0.25;entryDx=0;entryDy=0;" edge="1" parent="WIyWlLk6GJQsqaUBKTNV-1" source="-wIp1APwmRtR18hznMCX-50" target="-wIp1APwmRtR18hznMCX-19">
          <mxGeometry relative="1" as="geometry" />
        </mxCell>
        <mxCell id="-wIp1APwmRtR18hznMCX-54" style="edgeStyle=orthogonalEdgeStyle;rounded=0;orthogonalLoop=1;jettySize=auto;html=1;exitX=0.5;exitY=1;exitDx=0;exitDy=0;entryX=0;entryY=0.5;entryDx=0;entryDy=0;" edge="1" parent="WIyWlLk6GJQsqaUBKTNV-1" source="-wIp1APwmRtR18hznMCX-50" target="-wIp1APwmRtR18hznMCX-28">
          <mxGeometry relative="1" as="geometry" />
        </mxCell>
        <mxCell id="-wIp1APwmRtR18hznMCX-75" value="" style="edgeStyle=orthogonalEdgeStyle;rounded=0;orthogonalLoop=1;jettySize=auto;html=1;" edge="1" parent="WIyWlLk6GJQsqaUBKTNV-1" source="-wIp1APwmRtR18hznMCX-71" target="-wIp1APwmRtR18hznMCX-74">
          <mxGeometry relative="1" as="geometry" />
        </mxCell>
        <mxCell id="-wIp1APwmRtR18hznMCX-71" value="Duyệt" style="rhombus;whiteSpace=wrap;html=1;" vertex="1" parent="WIyWlLk6GJQsqaUBKTNV-1">
          <mxGeometry x="530" y="690" width="80" height="80" as="geometry" />
        </mxCell>
        <mxCell id="-wIp1APwmRtR18hznMCX-76" style="edgeStyle=orthogonalEdgeStyle;rounded=0;orthogonalLoop=1;jettySize=auto;html=1;" edge="1" parent="WIyWlLk6GJQsqaUBKTNV-1" source="-wIp1APwmRtR18hznMCX-74">
          <mxGeometry relative="1" as="geometry">
            <mxPoint x="280" y="540" as="targetPoint" />
          </mxGeometry>
        </mxCell>
        <mxCell id="-wIp1APwmRtR18hznMCX-74" value="Bị từ chối" style="whiteSpace=wrap;html=1;" vertex="1" parent="WIyWlLk6GJQsqaUBKTNV-1">
          <mxGeometry x="510" y="860" width="120" height="60" as="geometry" />
        </mxCell>
        <mxCell id="-wIp1APwmRtR18hznMCX-77" value="&lt;b&gt;Quy trình tờ trình khi gửi tới 3 cấp duyệt. Tờ trình không bắt buộc người duyệt&lt;/b&gt;" style="text;html=1;align=center;verticalAlign=middle;resizable=0;points=[];autosize=1;strokeColor=none;fillColor=none;" vertex="1" parent="WIyWlLk6GJQsqaUBKTNV-1">
          <mxGeometry x="350" y="330" width="470" height="30" as="geometry" />
        </mxCell>
      </root>
    </mxGraphModel>
  </diagram>
</mxfile>
